{
  "accessors": [
    {
      "bufferView": 2,
      "componentType": 5126,
      "count": 2034,
      "max": [
        0.18991200625896454,
        0.5871599912643433,
        1.294010043144226
      ],
      "min": [
        -0.2110150009393692,
        0.0010377999860793352,
        1.0776900053024292
      ],
      "type": "VEC3"
    },
    {
      "bufferView": 2,
      "byteOffset": 24408,
      "componentType": 5126,
      "count": 2034,
      "max": [
        1.0,
        1.0,
        0.9999989867210388
      ],
      "min": [
        -1.0,
        -1.0,
        -0.999995768070221
      ],
      "type": "VEC3"
    },
    {
      "bufferView": 1,
      "componentType": 5126,
      "count": 2034,
      "max": [
        1.0,
        1.0
      ],
      "min": [
        0.0,
        0.0
      ],
      "type": "VEC2"
    },
    {
      "bufferView": 0,
      "componentType": 5125,
      "count": 8832,
      "type": "SCALAR"
    },
    {
      "bufferView": 2,
      "byteOffset": 48816,
      "componentType": 5126,
      "count": 741,
      "max": [
        0.06516540050506592,
        0.23597699403762817,
        0.8690379858016968
      ],
      "min": [
        -0.09747970104217529,
        -0.03571360185742378,
        -0.0020135899540036917
      ],
      "type": "VEC3"
    },
    {
      "bufferView": 2,
      "byteOffset": 57708,
      "componentType": 5126,
      "count": 741,
      "max": [
        1.0,
        1.0,
        1.0
      ],
      "min": [
        -1.0,
        -1.0,
        -1.0
      ],
      "type": "VEC3"
    },
    {
      "bufferView": 1,
      "byteOffset": 16272,
      "componentType": 5126,
      "count": 741,
      "max": [
        1.0,
        1.0
      ],
      "min": [
        0.0,
        0.0
      ],
      "type": "VEC2"
    },
    {
      "bufferView": 0,
      "byteOffset": 35328,
      "componentType": 5125,
      "count": 1476,
      "type": "SCALAR"
    },
    {
      "bufferView": 2,
      "byteOffset": 66600,
      "componentType": 5126,
      "count": 68,
      "max": [
        0.18557000160217285,
        0.13363799452781677,
        1.1485199928283691
      ],
      "min": [
        0.14350399374961853,
        -0.4538840055465698,
        1.034600019454956
      ],
      "type": "VEC3"
    },
    {
      "bufferView": 2,
      "byteOffset": 67416,
      "componentType": 5126,
      "count": 68,
      "max": [
        1.0,
        0.9987846612930298,
        0.9952428936958313
      ],
      "min": [
        -1.0,
        -0.5401328802108765,
        -0.9952428936958313
      ],
      "type": "VEC3"
    },
    {
      "bufferView": 1,
      "byteOffset": 22200,
      "componentType": 5126,
      "count": 68,
      "max": [
        1.0,
        1.0
      ],
      "min": [
        0.0,
        0.0
      ],
      "type": "VEC2"
    },
    {
      "bufferView": 0,
      "byteOffset": 41232,
      "componentType": 5125,
      "count": 180,
      "type": "SCALAR"
    },
    {
      "bufferView": 2,
      "byteOffset": 68232,
      "componentType": 5126,
      "count": 28046,
      "max": [
        0.08536729961633682,
        0.22914600372314453,
        0.11741100251674652
      ],
      "min": [
        -0.10602500289678574,
        0.19129900634288788,
        -0.07434950023889542
      ],
      "type": "VEC3"
    },
    {
      "bufferView": 2,
      "byteOffset": 404784,
      "componentType": 5126,
      "count": 28046,
      "max": [
        0.9997231364250183,
        1.0,
        0.9996804594993591
      ],
      "min": [
        -0.9996988773345947,
        -1.0,
        -0.9994351267814636
      ],
      "type": "VEC3"
    },
    {
      "bufferView": 1,
      "byteOffset": 22744,
      "componentType": 5126,
      "count": 28046,
      "max": [
        1.4669899940490723,
        0.9979619979858398
      ],
      "min": [
        -0.46800699830055237,
        0.0018521200399845839
      ],
      "type": "VEC2"
    },
    {
      "bufferView": 0,
      "byteOffset": 41952,
      "componentType": 5125,
      "count": 153600,
      "type": "SCALAR"
    },
    {
      "bufferView": 2,
      "byteOffset": 741336,
      "componentType": 5126,
      "count": 5151,
      "max": [
        0.2005690038204193,
        0.5736789703369141,
        1.4510899782180786
      ],
      "min": [
        -0.21928200125694275,
        0.03798000141978264,
        0.2151550054550171
      ],
      "type": "VEC3"
    },
    {
      "bufferView": 2,
      "byteOffset": 803148,
      "componentType": 5126,
      "count": 5151,
      "max": [
        0.9999998807907104,
        0.9998462200164795,
        1.0
      ],
      "min": [
        -0.9999998807907104,
        -0.9999998807907104,
        -0.9999982118606567
      ],
      "type": "VEC3"
    },
    {
      "bufferView": 1,
      "byteOffset": 247112,
      "componentType": 5126,
      "count": 5151,
      "max": [
        1.0,
        0.6666669845581055
      ],
      "min": [
        0.0,
        0.0
      ],
      "type": "VEC2"
    },
    {
      "bufferView": 0,
      "byteOffset": 656352,
      "componentType": 5125,
      "count": 23808,
      "type": "SCALAR"
    },
    {
      "bufferView": 2,
      "byteOffset": 864960,
      "componentType": 5126,
      "count": 48,
      "max": [
        1.0069600343704224,
        -0.2362550050020218,
        0.8511390089988708
      ],
      "min": [
        -1.076799988746643,
        -3.430530071258545,
        0.7427089810371399
      ],
      "type": "VEC3"
    },
    {
      "bufferView": 2,
      "byteOffset": 865536,
      "componentType": 5126,
      "count": 48,
      "max": [
        0.9802036285400391,
        1.0,
        1.0
      ],
      "min": [
        -0.9476279020309448,
        -1.0,
        -1.0
      ],
      "type": "VEC3"
    },
    {
      "bufferView": 1,
      "byteOffset": 288320,
      "componentType": 5126,
      "count": 48,
      "max": [
        1.0,
        1.0
      ],
      "min": [
        -0.0037318901158869267,
        0.0
      ],
      "type": "VEC2"
    },
    {
      "bufferView": 0,
      "byteOffset": 751584,
      "componentType": 5125,
      "count": 72,
      "type": "SCALAR"
    },
    {
      "bufferView": 2,
      "byteOffset": 866112,
      "componentType": 5126,
      "count": 1211,
      "max": [
        1.1143300533294678,
        0.9540770053863525,
        1.4158600568771362
      ],
      "min": [
        -1.1439399719238281,
        -5.944900035858154,
        -0.06716839969158173
      ],
      "type": "VEC3"
    },
    {
      "bufferView": 2,
      "byteOffset": 880644,
      "componentType": 5126,
      "count": 1211,
      "max": [
        1.0,
        0.9714046716690063,
        0.999993622303009
      ],
      "min": [
        -1.0,
        -0.9999998807907104,
        -0.9999387860298157
      ],
      "type": "VEC3"
    },
    {
      "bufferView": 1,
      "byteOffset": 288704,
      "componentType": 5126,
      "count": 1211,
      "max": [
        1.0,
        0.8694310188293457
      ],
      "min": [
        0.0,
        0.0
      ],
      "type": "VEC2"
    },
    {
      "bufferView": 0,
      "byteOffset": 751872,
      "componentType": 5125,
      "count": 4812,
      "type": "SCALAR"
    },
    {
      "bufferView": 2,
      "byteOffset": 895176,
      "componentType": 5126,
      "count": 12356,
      "max": [
        0.20163600146770477,
        0.5713679790496826,
        1.402649998664856
      ],
      "min": [
        -0.19992299377918243,
        -0.008625569753348827,
        -0.12217500060796738
      ],
      "type": "VEC3"
    },
    {
      "bufferView": 2,
      "byteOffset": 1043448,
      "componentType": 5126,
      "count": 12356,
      "max": [
        1.0,
        1.0,
        1.0
      ],
      "min": [
        -1.0,
        -1.0,
        -1.0
      ],
      "type": "VEC3"
    },
    {
      "bufferView": 1,
      "byteOffset": 298392,
      "componentType": 5126,
      "count": 12356,
      "max": [
        1.0,
        1.0049999952316284
      ],
      "min": [
        0.0,
        0.0
      ],
      "type": "VEC2"
    },
    {
      "bufferView": 0,
      "byteOffset": 771120,
      "componentType": 5125,
      "count": 65856,
      "type": "SCALAR"
    },
    {
      "bufferView": 2,
      "byteOffset": 1191720,
      "componentType": 5126,
      "count": 3160,
      "max": [
        0.19625599682331085,
        -0.4153690040111542,
        1.1816799640655518
      ],
      "min": [
        0.1326960027217865,
        -0.7790349721908569,
        1.0889699459075928
      ],
      "type": "VEC3"
    },
    {
      "bufferView": 2,
      "byteOffset": 1229640,
      "componentType": 5126,
      "count": 3160,
      "max": [
        0.9999902248382568,
        0.7020453810691833,
        0.9999807476997375
      ],
      "min": [
        -0.9999911189079285,
        -0.999583899974823,
        -0.999995768070221
      ],
      "type": "VEC3"
    },
    {
      "bufferView": 1,
      "byteOffset": 397240,
      "componentType": 5126,
      "count": 3160,
      "max": [
        0.16996100544929504,
        1.0
      ],
      "min": [
        0.0,
        0.0
      ],
      "type": "VEC2"
    },
    {
      "bufferView": 0,
      "byteOffset": 1034544,
      "componentType": 5125,
      "count": 17280,
      "type": "SCALAR"
    }
  ],
  "asset": {
    "extras": {
      "author": "gogiart (https://sketchfab.com/agt14032013)",
      "license": "CC-BY-4.0 (http://creativecommons.org/licenses/by/4.0/)",
      "source": "https://sketchfab.com/3d-models/day-boat-66c3e026ae7a439ba3b4331145d83385",
      "title": "Day Boat"
    },
    "generator": "Sketchfab-16.34.0",
    "version": "2.0"
  },
  "bufferViews": [
    {
      "buffer": 0,
      "byteLength": 1103664,
      "name": "floatBufferViews",
      "target": 34963
    },
    {
      "buffer": 0,
      "byteLength": 422520,
      "byteOffset": 1103664,
      "byteStride": 8,
      "name": "floatBufferViews",
      "target": 34962
    },
    {
      "buffer": 0,
      "byteLength": 1267560,
      "byteOffset": 1526184,
      "byteStride": 12,
      "name": "floatBufferViews",
      "target": 34962
    }
  ],
  "buffers": [
    {
      "byteLength": 2793744,
      "uri": "scene.bin"
    }
  ],
  "images": [
    {
      "uri": "textures/acmat_0_baseColor.jpeg"
    },
    {
      "uri": "textures/acmat_1_baseColor.jpeg"
    },
    {
      "uri": "textures/acmat_2_baseColor.jpeg"
    },
    {
      "uri": "textures/acmat_3_baseColor.jpeg"
    },
    {
      "uri": "textures/acmat_4_baseColor.jpeg"
    },
    {
      "uri": "textures/acmat_5_baseColor.jpeg"
    }
  ],
  "materials": [
    {
      "doubleSided": true,
      "name": "acmat_0",
      "pbrMetallicRoughness": {
        "baseColorTexture": {
          "index": 0
        },
        "metallicFactor": 0.0,
        "roughnessFactor": 0.9327282867797029
      }
    },
    {
      "doubleSided": true,
      "name": "acmat_1",
      "pbrMetallicRoughness": {
        "baseColorTexture": {
          "index": 1
        },
        "metallicFactor": 0.0,
        "roughnessFactor": 0.9327282867797029
      }
    },
    {
      "doubleSided": true,
      "name": "acmat_2",
      "pbrMetallicRoughness": {
        "baseColorTexture": {
          "index": 2
        },
        "metallicFactor": 0.0,
        "roughnessFactor": 0.9327282867797029
      }
    },
    {
      "doubleSided": true,
      "name": "acmat_3",
      "pbrMetallicRoughness": {
        "baseColorTexture": {
          "index": 3
        },
        "metallicFactor": 0.0,
        "roughnessFactor": 0.9327282867797029
      }
    },
    {
      "doubleSided": true,
      "name": "acmat_4",
      "pbrMetallicRoughness": {
        "baseColorTexture": {
          "index": 4
        },
        "metallicFactor": 0.0,
        "roughnessFactor": 0.9327282867797029
      }
    },
    {
      "doubleSided": true,
      "name": "acmat_5",
      "pbrMetallicRoughness": {
        "baseColorTexture": {
          "index": 5
        },
        "metallicFactor": 0.0,
        "roughnessFactor": 0.9327282867797029
      }
    }
  ],
  "meshes": [
    {
      "name": "Object_0",
      "primitives": [
        {
          "attributes": {
            "NORMAL": 1,
            "POSITION": 0,
            "TEXCOORD_0": 2
          },
          "indices": 3,
          "material": 5,
          "mode": 4
        }
      ]
    },
    {
      "name": "Object_1",
      "primitives": [
        {
          "attributes": {
            "NORMAL": 5,
            "POSITION": 4,
            "TEXCOORD_0": 6
          },
          "indices": 7,
          "material": 0,
          "mode": 4
        }
      ]
    },
    {
      "name": "Object_2",
      "primitives": [
        {
          "attributes": {
            "NORMAL": 9,
            "POSITION": 8,
            "TEXCOORD_0": 10
          },
          "indices": 11,
          "material": 1,
          "mode": 4
        }
      ]
    },
    {
      "name": "Object_3",
      "primitives": [
        {
          "attributes": {
            "NORMAL": 13,
            "POSITION": 12,
            "TEXCOORD_0": 14
          },
          "indices": 15,
          "material": 1,
          "mode": 4
        }
      ]
    },
    {
      "name": "Object_4",
      "primitives": [
        {
          "attributes": {
            "NORMAL": 17,
            "POSITION": 16,
            "TEXCOORD_0": 18
          },
          "indices": 19,
          "material": 1,
          "mode": 4
        }
      ]
    },
    {
      "name": "Object_5",
      "primitives": [
        {
          "attributes": {
            "NORMAL": 21,
            "POSITION": 20,
            "TEXCOORD_0": 22
          },
          "indices": 23,
          "material": 2,
          "mode": 4
        }
      ]
    },
    {
      "name": "Object_6",
      "primitives": [
        {
          "attributes": {
            "NORMAL": 25,
            "POSITION": 24,
            "TEXCOORD_0": 26
          },
          "indices": 27,
          "material": 3,
          "mode": 4
        }
      ]
    },
    {
      "name": "Object_7",
      "primitives": [
        {
          "attributes": {
            "NORMAL": 29,
            "POSITION": 28,
            "TEXCOORD_0": 30
          },
          "indices": 31,
          "material": 4,
          "mode": 4
        }
      ]
    },
    {
      "name": "Object_8",
      "primitives": [
        {
          "attributes": {
            "NORMAL": 33,
            "POSITION": 32,
            "TEXCOORD_0": 34
          },
          "indices": 35,
          "material": 4,
          "mode": 4
        }
      ]
    }
  ],
  "nodes": [
    {
      "children": [
        1
      ],
      "matrix": [
        1.0,
        0.0,
        0.0,
        0.0,
        0.0,
        2.220446049250313e-16,
        -1.0,
        0.0,
        0.0,
        1.0,
        2.220446049250313e-16,
        0.0,
        0.0,
        0.0,
        0.0,
        1.0
      ],
      "name": "Sketchfab_model"
    },
    {
      "children": [
        2,
        3,
        4,
        5,
        6,
        7,
        8,
        9,
        10
      ],
      "name": "DAY BOAT.obj.cleaner.materialmerger.gles"
    },
    {
      "mesh": 0,
      "name": "Object_2"
    },
    {
      "mesh": 1,
      "name": "Object_3"
    },
    {
      "mesh": 2,
      "name": "Object_4"
    },
    {
      "mesh": 3,
      "name": "Object_5"
    },
    {
      "mesh": 4,
      "name": "Object_6"
    },
    {
      "mesh": 5,
      "name": "Object_7"
    },
    {
      "mesh": 6,
      "name": "Object_8"
    },
    {
      "mesh": 7,
      "name": "Object_9"
    },
    {
      "mesh": 8,
      "name": "Object_10"
    }
  ],
  "samplers": [
    {
      "magFilter": 9729,
      "minFilter": 9987,
      "wrapS": 10497,
      "wrapT": 10497
    }
  ],
  "scene": 0,
  "scenes": [
    {
      "name": "Sketchfab_Scene",
      "nodes": [
        0
      ]
    }
  ],
  "textures": [
    {
      "sampler": 0,
      "source": 0
    },
    {
      "sampler": 0,
      "source": 1
    },
    {
      "sampler": 0,
      "source": 2
    },
    {
      "sampler": 0,
      "source": 3
    },
    {
      "sampler": 0,
      "source": 4
    },
    {
      "sampler": 0,
      "source": 5
    }
  ]
}
